<svg xmlns="http://www.w3.org/2000/svg" viewBox="0 0 100 100">
<defs><radialGradient id="g" cx="40%" cy="30%" r="80%"><stop offset="0" stop-color="#4E9A62"/><stop offset="1" stop-color="#1E4D2B"/></radialGradient></defs>
<circle cx="50" cy="50" r="48" fill="url(#g)" stroke="#C8C372" stroke-width="3"/>
<circle cx="50" cy="50" r="41" fill="none" stroke="#C8C372" stroke-width="1" opacity=".6"/>
<g fill="#C8C372">
 <!-- head -->
 <path d="M50 30c-9 0-15 6-16 14l-3 14c-1 5 2 9 6 11l4 7c2 3 5 4 9 4s7-1 9-4l4-7c4-2 7-6 6-11l-3-14c-1-8-7-14-16-14z"/>
 <!-- horns -->
 <path d="M34 40c-8-2-16 1-19 8-3 6 0 13 5 16 5 3 11 1 13-3-4 1-8-1-9-5-1-5 2-9 7-10 3-1 5 0 7 1l-4-7z"/>
 <path d="M66 40c8-2 16 1 19 8 3 6 0 13-5 16-5 3-11 1-13-3 4 1 8-1 9-5 1-5-2-9-7-10-3-1-5 0-7 1l4-7z"/>
</g>
<g fill="#1E4D2B">
 <ellipse cx="43" cy="50" rx="2.6" ry="3"/><ellipse cx="57" cy="50" rx="2.6" ry="3"/>
 <path d="M46 66c2 2 6 2 8 0-1 3-3 4-4 4s-3-1-4-4z"/>
</g>
<!-- check -->
<path d="M28 78l8 8 16-16" fill="none" stroke="#fff" stroke-width="6" stroke-linecap="round" stroke-linejoin="round" opacity=".95"/>
</svg>